# xmcd CD database file
#
# Track frame offsets:
#	150
#	12648
#	36332
#	48199
#	62923
#	77254
#	91909
#	101413
#	113858
#	126426
#	137686
#	153550
#	166440
#	182594
#	202328
#	236751
#	249278
#	271798
#	285809
#	304577
#
# Disc length: 4225 seconds
#
# Revision: 0
# Processed by: cddbd v1.5.1PL2 Copyright (c) Steve Scherf et al.
# Submitted via: Feurio! 1.68 - http://www.feurio.com
#
DISCID=0d107f14
DTITLE=James Brown - 20 All Time Greatest Hits
DYEAR=1900
DGENRE=
TTITLE0=I Got You ( I Feel Good )
TTITLE1=Get Up ( I Feel Like Being A ) Sexmachine
TTITLE2=I Got The Feelin'
TTITLE3=Mother Popcorn (Part 1 )
TTITLE4=Give It Up Or Turnit A Loose
TTITLE5=Make It Funky ( Part 1 )
TTITLE6=Papa's Got A Brand New Bag ( Part 1 )
TTITLE7=Think
TTITLE8=It's A Man's Man's Man's World
TTITLE9=Try Me
TTITLE10=Night Train
TTITLE11=Cold Sweat ( Part 1 )
TTITLE12=Get On The Good Foot
TTITLE13=Papa Don't Take No Mess ( Part 1 )
TTITLE14=Payback
TTITLE15=Say It Loud ( I'm Black And I'm Proud )
TTITLE16=Super Bad ( Parts 1 and 2 )
TTITLE17=Hot Pants
TTITLE18=Get Up Offa That Thing
TTITLE19=Please, Please, Please
EXTD=
EXTT0=
EXTT1=
EXTT2=
EXTT3=
EXTT4=
EXTT5=
EXTT6=
EXTT7=
EXTT8=
EXTT9=
EXTT10=
EXTT11=
EXTT12=
EXTT13=
EXTT14=
EXTT15=
EXTT16=
EXTT17=
EXTT18=
EXTT19=
PLAYORDER=
